<?xml version="1.0" standalone="no"?>
<!DOCTYPE svg PUBLIC "-//W3C//DTD SVG 1.1//EN" "http://www.w3.org/Graphics/SVG/1.1/DTD/svg11.dtd" >
<svg xmlns="http://www.w3.org/2000/svg">
<metadata></metadata>
<defs>
<font id="brasiliaregular" horiz-adv-x="1024" >
<font-face units-per-em="2048" ascent="1536" descent="-512" />
<missing-glyph horiz-adv-x="819" />
<glyph horiz-adv-x="0" />
<glyph horiz-adv-x="682" />
<glyph unicode=" "  horiz-adv-x="819" />
<glyph unicode="&#x09;" horiz-adv-x="819" />
<glyph unicode="&#xa0;" horiz-adv-x="819" />
<glyph unicode="!" horiz-adv-x="409" d="M-41 1843v205h246v-1638h-205v1433h-41zM0 0v205h205v-205h-205z" />
<glyph unicode="&#x22;" horiz-adv-x="716" d="M0 1843v205h205v-205l-103 -205v205h-102zM307 1843v205h205v-205l-102 -205v205h-103z" />
<glyph unicode="#" d="M0 819v205h102v205h-102v205h102v409h205v-409h205v409h205v-409h102v-205h-102v-205h102v-205h-102v-409h-205v409h-205v-409h-205v409h-102zM307 1024h205v205h-205v-205z" />
<glyph unicode="$" d="M0 410v204h205v-122l84 -82h243l82 82v450l-82 82h-327l-205 205v409l205 205h106v205h205v-205h98l205 -205v-204h-205v122l-82 82h-243l-84 -82v-245l84 -82h325l205 -205v-614l-205 -205h-98v-205h-205v205h-106z" />
<glyph unicode="%" horiz-adv-x="1843" d="M0 1432v411l205 205h205l204 -205v-411l-204 -203h-205zM205 1520l82 -86h41l82 86v243l-82 82h-41l-82 -82v-243zM578 0l206 2050h205l-205 -2050h-206zM1024 205v409l205 205h205l204 -205v-409l-204 -205h-205zM1229 287l82 -82h41l82 82v245l-82 82h-41l-82 -82v-245 z" />
<glyph unicode="&#x26;" horiz-adv-x="1228" d="M0 205v819l106 100l-106 105v614l205 205h409l205 -205v-205h-205v123l-82 82h-243l-84 -82v-450l84 -82h184v-205h-184l-84 -82v-655l84 -82h243l82 82v942h410v-205h-205v-819l-205 -205h-409z" />
<glyph unicode="'" horiz-adv-x="409" d="M0 1843v205h205v-205l-103 -205v205h-102z" />
<glyph unicode="(" horiz-adv-x="614" d="M0 2v2044l207 207h203v-205h-119l-86 -84v-1884l86 -80h119v-205h-203z" />
<glyph unicode=")" horiz-adv-x="614" d="M0 0h119l86 80v1884l-86 84h-119v205h203l207 -207v-2044l-207 -207h-203v205z" />
<glyph unicode="*" d="M0 1434v204h217l-121 185l178 110l136 -209l137 209l176 -110l-121 -185h217v-204h-217l121 -183l-174 -114l-139 211l-140 -211l-174 114l121 183h-217z" />
<glyph unicode="+" d="M0 819v205h307v295l205 2v-297h307v-205h-307v-319h-205v319h-307z" />
<glyph unicode="," horiz-adv-x="409" d="M0 0v205h205v-205l-103 -205v205h-102z" />
<glyph unicode="-" d="M0 614v205h819v-205h-819z" />
<glyph unicode="." horiz-adv-x="409" d="M0 0v205h205v-205h-205z" />
<glyph unicode="/" horiz-adv-x="614" d="M0 -203l205 2458h205l-205 -2458h-205z" />
<glyph unicode="0" d="M0 205v1638l205 205h409l205 -205v-1638l-205 -205h-409zM205 287l84 -82h243l82 82v1474l-82 82h-243l-84 -82v-1474z" />
<glyph unicode="1" horiz-adv-x="409" d="M-41 1843v205h246v-2048h-205v1843h-41z" />
<glyph unicode="2" d="M0 0v1024l205 205h327l82 82v450l-82 82h-245l-82 -82v-123h-205v205l205 205h409l205 -205v-614l-205 -205h-327l-82 -82v-737h614v-205h-614h-205z" />
<glyph unicode="3" d="M0 205v205h205v-123l82 -82h245l82 82v655l-82 82h-327v205h327l82 82v450l-82 82h-245l-82 -82v-123h-205v205l205 205h409l205 -205v-614l-104 -105l104 -100v-819l-205 -205h-409z" />
<glyph unicode="4" horiz-adv-x="1120" d="M0 614v1434h205v-1229h409v1229h205v-1229h96v-205h-96v-614h-205v614h-614z" />
<glyph unicode="5" d="M0 205v205h205v-123l82 -82h245l82 82v860l-82 82h-245l-82 -82h-205v901h711v-205h-506v-409h409l205 -205v-1024l-205 -205h-409z" />
<glyph unicode="6" d="M0 205v1638l205 205h409l205 -205v-205h-205v123l-82 82h-243l-84 -82v-327h409l205 -205v-1024l-205 -205h-409zM205 287l84 -82h243l82 82v860l-82 82h-243l-84 -82v-860z" />
<glyph unicode="7" d="M0 1843v205h819v-500l-409 -409v-1139h-205v852v371l409 409v211h-614z" />
<glyph unicode="8" d="M0 205v819l100 100l-100 105v614l205 205h409l205 -205v-614l-104 -105l104 -100v-819l-205 -205h-409zM205 287l82 -82h245l82 82v655l-82 82h-245l-82 -82v-655zM205 1311l82 -82h245l82 82v450l-82 82h-245l-82 -82v-450z" />
<glyph unicode="9" d="M0 205v205h205v-123l82 -82h245l82 82v737h-409l-205 205v614l205 205h409l205 -205v-1638l-205 -205h-409zM205 1311l82 -82h245l82 82v450l-82 82h-245l-82 -82v-450z" />
<glyph unicode=":" horiz-adv-x="409" d="M0 0v205h205v-205h-205zM0 819v205h205v-205h-205z" />
<glyph unicode=";" horiz-adv-x="409" d="M0 0v205h205v-205l-103 -205v205h-102zM0 819v205h205v-205h-205z" />
<glyph unicode="&#x3c;" horiz-adv-x="614" d="M0 819l205 615h205l-205 -615l205 -614h-205z" />
<glyph unicode="=" d="M0 819v205h819v-205h-819zM0 1229v205h819v-205h-819z" />
<glyph unicode="&#x3e;" horiz-adv-x="614" d="M0 205l205 612l-205 615h205l205 -615l-205 -612h-205z" />
<glyph unicode="?" d="M0 1638v205l205 205h409l205 -205v-614l-305 -311v-508h-205v614l305 287v450l-82 82h-245l-82 -82v-123h-205zM309 0v205h205v-205h-205z" />
<glyph unicode="@" horiz-adv-x="1638" d="M0 205v1638l205 205h1024l205 -205v-1229l-205 -204h-205l-104 100l-101 -100h-205l-204 204v820l204 204h205l205 -204v-738l82 -82h41l82 82v1065l-82 82h-860l-82 -82v-1474l82 -82h942v-205h-1024zM614 696l82 -82h41l82 82v656l-82 82h-41l-82 -82v-656z" />
<glyph unicode="A" d="M0 0v1843l205 205h409l205 -205v-1843h-205v1024h-409v-1024h-205zM205 1229h409v532l-82 82h-241l-86 -86v-528z" />
<glyph unicode="B" d="M-41 1843v205h655l205 -205v-614l-104 -105l104 -100v-819l-205 -205h-614v1843h-41zM205 205h327l82 82v655l-82 82h-327v-819zM205 1229h327l82 82v450l-82 82h-327v-614z" />
<glyph unicode="C" d="M0 205v1638l205 205h409l205 -205v-205h-205v123l-82 82h-245l-82 -82v-1474l82 -82h245l82 82v123h205v-205l-205 -205h-409z" />
<glyph unicode="D" d="M-41 1843v205h655l205 -205v-1638l-205 -205h-614v1843h-41zM205 205h327l82 82v1474l-82 82h-327v-1638z" />
<glyph unicode="E" d="M-41 1843v205h860v-205h-614v-614h409v-205h-409v-819h614v-205h-819v1843h-41z" />
<glyph unicode="F" d="M-41 1843v205h860v-205h-614v-614h409v-205h-409v-1024h-205v1843h-41z" />
<glyph unicode="G" d="M0 205v1638l205 205h409l205 -205v-205h-205v123l-82 82h-245l-82 -82v-1474l82 -82h245l82 82v737h-204v205h409v-1024l-205 -205h-409z" />
<glyph unicode="H" d="M-41 1843v205h246v-819h409v819h205v-2048h-205v1024h-409v-1024h-205v1843h-41z" />
<glyph unicode="I" horiz-adv-x="409" d="M-41 1843v205h246v-2048h-205v1843h-41z" />
<glyph unicode="J" d="M0 205v205h205v-123l82 -82h245l82 82v1556h-41v205h246v-1843l-205 -205h-409z" />
<glyph unicode="K" d="M-41 1843v205h246v-819h327l82 82v737h205v-819l-104 -105l104 -100v-1024h-205v942l-82 82h-327v-1024h-205v1843h-41z" />
<glyph unicode="L" d="M-41 1843v205h246v-1843h614v-205h-819v1843h-41z" />
<glyph unicode="M" horiz-adv-x="1228" d="M-41 1843v205h209l342 -344l346 344h168v-2048h-205v1720l-309 -309l-305 309v-1720h-205v1843h-41z" />
<glyph unicode="N" d="M-41 1843v205h209l446 -446v446h205v-2048h-205v1311l-409 409v-1720h-205v1843h-41z" />
<glyph unicode="O" d="M0 205v1638l205 205h409l205 -205v-1638l-205 -205h-409zM205 287l82 -82h245l82 82v1474l-82 82h-245l-82 -82v-1474z" />
<glyph unicode="P" d="M-41 1843v205h655l205 -205v-614l-205 -205h-409v-1024h-205v1843h-41zM205 1229h327l82 82v450l-82 82h-327v-614z" />
<glyph unicode="Q" d="M0 205v1638l205 205h409l205 -205v-1638l-205 -205h-102v-205h-205v205h-102zM205 287l82 -82h20v205h205v-205h20l82 82v1474l-82 82h-245l-82 -82v-1474z" />
<glyph unicode="R" d="M-41 1843v205h655l205 -205v-614l-104 -105l104 -100v-1024h-205v942l-82 82h-327v-1024h-205v1843h-41zM205 1229h327l82 82v450l-82 82h-327v-614z" />
<glyph unicode="S" d="M0 205v205h205v-123l82 -82h245l82 82v532l-614 615v409l205 205h409l205 -205v-205h-205v123l-82 82h-245l-82 -82v-245l614 -615v-696l-205 -205h-409z" />
<glyph unicode="T" d="M0 1843v205h819v-205h-307v-1843h-205v1843h-307z" />
<glyph unicode="U" d="M-41 1843v205h246v-1761l82 -82h245l82 82v1761h205v-1843l-205 -205h-409l-205 205v1638h-41z" />
<glyph unicode="V" d="M-41 1843v205h246v-1552l205 -205l204 205v1552h205v-1638l-409 -410l-410 410v1433h-41z" />
<glyph unicode="W" horiz-adv-x="1228" d="M-41 1843v205h246v-1655l100 -102l105 104v1653h204v-1655l101 -102l104 104v1653h205v-1739l-309 -309l-205 205l-205 -205l-305 305v1538h-41z" />
<glyph unicode="X" d="M-41 1843v205h246v-414l205 -204l204 204v414h205v-500l-266 -266l266 -262v-1020h-205v934l-204 205l-205 -205v-934h-205v1020l262 262l-262 266v295h-41z" />
<glyph unicode="Y" d="M-41 1843v205h246v-414l205 -204l204 204v414h205v-500l-307 -305v-1243h-205v1239l-307 309v295h-41z" />
<glyph unicode="Z" d="M0 0v1018l614 614v211h-614v205h819v-500l-614 -614v-729h614v-205h-819z" />
<glyph unicode="[" horiz-adv-x="614" d="M0 0v2253h410v-205h-205v-2048h205v-205h-410v205z" />
<glyph unicode="\" horiz-adv-x="614" d="M0 2255h205l205 -2458h-205z" />
<glyph unicode="]" horiz-adv-x="614" d="M0 0h205v2048h-205v205h410v-2253v-205h-410v205z" />
<glyph unicode="^" horiz-adv-x="614" d="M0 1790v205l205 53l205 -53v-205l-205 53z" />
<glyph unicode="_" horiz-adv-x="1433" d="M0 -207h1229v-203h-1229v203z" />
<glyph unicode="`" horiz-adv-x="614" d="M0 1229v205l410 -109v-205z" />
<glyph unicode="a" d="M0 205v614l205 205h409v123l-82 82h-432v205h514l205 -205v-1024l-205 -205h-409zM205 287l82 -82h245l82 82v532h-327l-82 -82v-450z" />
<glyph unicode="b" d="M-41 1843v205h246v-614h399l215 -205v-1024l-205 -205h-614v1843h-41zM205 205h327l82 82v860l-82 82h-327v-1024z" />
<glyph unicode="c" d="M0 205v1024l205 205h409l205 -205v-205h-205v123l-82 82h-245l-82 -82v-860l82 -82h245l82 82v123h205v-205l-205 -205h-409z" />
<glyph unicode="d" d="M0 205v1024l215 205h399v409h-41v205h246v-2048h-614zM205 287l82 -82h327v1024h-327l-82 -82v-860z" />
<glyph unicode="e" d="M0 205v1024l205 205h409l205 -205v-615l-205 -204h-409v-123l82 -82h432v-205h-514zM205 614h327l82 82v451l-82 82h-245l-82 -82v-533z" />
<glyph unicode="f" horiz-adv-x="710" d="M0 1229v205h96v204l205 205h205v-205h-123l-82 -82v-122h205v-205h-205v-1229h-205v1229h-96z" />
<glyph unicode="g" d="M0 207v1022l205 205h409l205 -205v-1432l-205 -205h-514v205h432l82 80v125h-409zM205 287l80 -80h247l82 80v862l-82 80h-247l-80 -80v-862z" />
<glyph unicode="h" d="M-41 1843v205h246v-614h399l215 -205v-1229h-205v1147l-82 82h-327v-1229h-205v1843h-41z" />
<glyph unicode="i" horiz-adv-x="409" d="M-41 1229v205h246v-1434h-205v1229h-41zM0 1638v205h205v-205h-205z" />
<glyph unicode="j" horiz-adv-x="409" d="M-205 -205h123l82 80v1354h-41v205h246v-1641l-205 -205h-205v207zM0 1638v205h205v-205h-205z" />
<glyph unicode="k" d="M-41 1843v205h246v-1024h327l82 82v328h205v-410l-104 -104l104 -101v-819h-205v737l-82 82h-327v-819h-205v1843h-41z" />
<glyph unicode="l" horiz-adv-x="409" d="M-41 1843v205h246v-2048h-205v1843h-41z" />
<glyph unicode="m" horiz-adv-x="1228" d="M-41 1229v205h440l107 -103l108 103h205l205 -201v-1233h-205v1147l-82 82h-41l-82 -82v-1147h-204v1147l-82 82h-123v-1229h-205v1229h-41z" />
<glyph unicode="n" d="M-41 1229v205h645l215 -205v-1229h-205v1147l-82 82h-327v-1229h-205v1229h-41z" />
<glyph unicode="o" d="M0 205v1024l205 205h409l205 -205v-1024l-205 -205h-409zM205 287l82 -82h245l82 82v860l-82 82h-245l-82 -82v-860z" />
<glyph unicode="p" horiz-adv-x="1021" d="M-41 1229v205h655l203 -207v-1024l-215 -205h-397v-612h-205v1843h-41zM205 203h325l84 84v860l-84 82h-325v-1026z" />
<glyph unicode="q" horiz-adv-x="1021" d="M0 205v1024l205 205h655v-205h-41v-1843h-205v614h-399zM205 287l82 -82h327v1024h-327l-82 -82v-860z" />
<glyph unicode="r" horiz-adv-x="819" d="M-41 1229v205h246v-205l205 205h204v-205h-118l-291 -291v-938h-205v1229h-41z" />
<glyph unicode="s" d="M0 205v205h205v-123l82 -82h245l82 82v245l-82 82h-327l-205 205v410l205 205h409l205 -205v-205h-205v123l-82 82h-245l-82 -82v-246l82 -82h327l205 -205v-409l-205 -205h-409z" />
<glyph unicode="t" horiz-adv-x="614" d="M0 205v1638h205v-409h205v-205h-205v-942l82 -82h123v-205h-205z" />
<glyph unicode="u" horiz-adv-x="1021" d="M-41 1229v205h246v-1147l82 -82h327v1229h205v-1229h37v-205h-641l-215 205v1024h-41z" />
<glyph unicode="v" d="M-41 1229v205h246v-938l205 -205l204 205v938h205v-1024l-409 -410l-410 410v819h-41z" />
<glyph unicode="w" horiz-adv-x="1228" d="M-41 1229v205h246v-1041l100 -102l105 104v1039h204v-1041l101 -102l104 104v1039h205v-1125l-309 -309l-205 205l-205 -205l-305 305v924h-41z" />
<glyph unicode="x" d="M-41 1229v205h246v-301l205 -205l204 205v301h205v-387l-266 -267l266 -262v-518h-205v432l-204 205l-205 -205v-432h-205v518l262 262l-262 267v182h-41z" />
<glyph unicode="y" d="M-41 1227v207h248v-207h-2v-942l82 -80h245l82 80v1149h205v-1641l-205 -205h-512v205h430l82 82v125h-409l-205 205v1022h-41z" />
<glyph unicode="z" d="M0 0v614l614 615h-614v205h819v-287l-614 -615v-327h614v-205h-819z" />
<glyph unicode="{" horiz-adv-x="696" d="M0 1022v207l82 82v737l205 205h205v-205h-123l-82 -82v-737l-105 -103l105 -104v-940l82 -82h123v-205h-205l-205 205v942z" />
<glyph unicode="|" horiz-adv-x="409" d="M0 -205v2048h205v-2048h-205z" />
<glyph unicode="}" horiz-adv-x="696" d="M0 0h123l82 82v940l104 104l-104 103v737l-82 82h-123v205h205l205 -205v-737l82 -82v-207l-82 -80v-942l-205 -205h-205v205z" />
<glyph unicode="~" horiz-adv-x="819" d="M0 1606v202l211 37l209 -28l194 28v-203l-194 -36l-209 28z" />
<glyph unicode="&#xa1;" horiz-adv-x="409" d="M0 0v1638h205v-1638h-205zM0 1843v205h205v-205h-205z" />
<glyph unicode="&#xa2;" d="M0 410v1024l205 204h92v205h205v-205h112l205 -204v-205h-205v123l-82 82h-245l-82 -82v-860l82 -82h245l82 82v122h205v-204l-205 -205h-112v-205h-205v205h-92z" />
<glyph unicode="&#xa3;" horiz-adv-x="1126" d="M0 1229v205h102v409l205 205h410l205 -205v-205h-205v123l-82 82h-246l-82 -82v-327h410v-205h-410v-1024h615v-205h-820v1229h-102z" />
<glyph unicode="&#xa5;" d="M-102 1843v205h307v-414l205 -204l204 204v414h205v-500l-305 -305v-14h305v-205h-305v-205h305v-205h-305v-614h-205v614h-309v205h309v205h-309v205h309v10l-309 309v295h-102z" />
<glyph unicode="&#xa8;" horiz-adv-x="819" d="M0 1843v205h205v-205h-205zM410 1843v205h204v-205h-204z" />
<glyph unicode="&#xa9;" horiz-adv-x="1638" d="M0 205v1638l205 205h1024l205 -205v-1638l-205 -205h-1024zM205 287l82 -82h860l82 82v1474l-82 82h-860l-82 -82v-1474zM410 614v820l204 204h205l205 -204v-205h-205v123l-82 82h-41l-82 -82v-656l82 -82h41l82 82v123h205v-205l-205 -204h-205z" />
<glyph unicode="&#xab;" horiz-adv-x="1021" d="M0 817l205 615h203l-203 -615l203 -612h-203zM408 817l204 615h205l-205 -615l205 -612h-205z" />
<glyph unicode="&#xad;" d="M0 614v205h819v-205h-819z" />
<glyph unicode="&#xae;" horiz-adv-x="1640" d="M0 205v1640l205 205h1026l205 -205v-1640l-205 -205h-1026zM205 287l82 -82h862l82 82v1476l-82 82h-862l-82 -82v-1476zM373 1436v204h446l207 -204v-205l-104 -105l104 -100v-616h-207v532l-82 84h-123v-616h-204v1026h-37zM614 1231h123l82 82v41l-82 82h-123v-205z " />
<glyph unicode="&#xb0;" horiz-adv-x="819" d="M0 1434v409l205 205h205l204 -205v-409l-204 -205h-205zM205 1518l82 -84h41l82 84v243l-82 82h-41l-82 -82v-243z" />
<glyph unicode="&#xb1;" d="M0 614v205h819v-205h-819zM0 1229v205h309v295l205 2v-297h305v-205h-305v-320h-205v320h-309z" />
<glyph unicode="&#xb4;" horiz-adv-x="614" d="M0 1735v204l410 109v-205z" />
<glyph unicode="&#xb7;" horiz-adv-x="409" d="M0 817v412h205v-412h-205z" />
<glyph unicode="&#xb8;" horiz-adv-x="528" d="M0 -205h37l82 82v123h205v-205l-205 -205h-119v205z" />
<glyph unicode="&#xbb;" horiz-adv-x="1021" d="M0 205l205 612l-205 615h205l205 -615l-205 -612h-205zM410 205l202 612l-202 615h202l205 -615l-205 -612h-202z" />
<glyph unicode="&#xbf;" d="M0 205v614l305 311v508h205v-614l-305 -287v-450l82 -82h245l82 82v123h205v-205l-205 -205h-409zM305 1843v205h205v-205h-205z" />
<glyph unicode="&#xc0;" d="M0 0v1843l205 205h409l205 -205v-1843h-205v1024h-409v-1024h-205zM205 1229h409v532l-82 82h-241l-86 -86v-528zM205 2253v205l410 -109v-205z" />
<glyph unicode="&#xc1;" d="M0 0v1843l205 205h409l205 -205v-1843h-205v1024h-409v-1024h-205zM205 1229h409v532l-82 82h-241l-86 -86v-528zM205 2145v204l410 109v-205z" />
<glyph unicode="&#xc2;" d="M0 0v1843l205 205h409l205 -205v-1843h-205v1024h-409v-1024h-205zM205 1229h409v532l-82 82h-241l-86 -86v-528zM205 2200v205l205 53l205 -53v-205l-205 53z" />
<glyph unicode="&#xc3;" d="M0 0v1843l205 205h409l205 -205v-1843h-205v1024h-409v-1024h-205zM102 2218v211l205 29l205 -29l204 29v-211l-204 -29l-205 29zM205 1229h409v532l-82 82h-241l-86 -86v-528z" />
<glyph unicode="&#xc4;" d="M0 0v1843l205 205h409l205 -205v-1843h-205v1024h-409v-1024h-205zM102 2253v205h205v-205h-205zM205 1229h409v532l-82 82h-241l-86 -86v-528zM512 2253v205h204v-205h-204z" />
<glyph unicode="&#xc5;" d="M0 0v1843l154 154l-52 51v205l205 205h205l205 -205v-205l-51 -51l153 -154v-1843h-205v1024h-409v-1024h-205zM205 1229h409v532l-82 82h-241l-86 -86v-528zM307 2132l82 -84h41l82 84v39l-82 82h-41l-82 -82v-39z" />
<glyph unicode="&#xc6;" horiz-adv-x="1228" d="M0 0v1843l205 205h819v-205h-410v-614h205v-205h-205v-819h410v-205h-614v1024h-205v-1024h-205zM205 1229h205v614h-119l-86 -86v-528z" />
<glyph unicode="&#xc7;" d="M0 205v1638l205 205h409l205 -205v-205h-205v123l-82 82h-245l-82 -82v-1474l82 -82h245l82 82v123h205v-205l-205 -205h-409zM205 -205h37l82 82v123h205v-205l-205 -205h-119v205z" />
<glyph unicode="&#xc8;" horiz-adv-x="1026" d="M-39 1843v205h860v-205h-614v-614h409v-205h-409v-819h614v-205h-819v1843h-41zM207 2253v205l410 -109v-205z" />
<glyph unicode="&#xc9;" d="M-41 1843v205h860v-205h-614v-614h409v-205h-409v-819h614v-205h-819v1843h-41zM205 2145v204l410 109v-205z" />
<glyph unicode="&#xca;" d="M-41 1843v205h860v-205h-614v-614h409v-205h-409v-819h614v-205h-819v1843h-41zM205 2200v205l205 53l205 -53v-205l-205 53z" />
<glyph unicode="&#xcb;" d="M-41 1843v205h860v-205h-614v-614h409v-205h-409v-819h614v-205h-819v1843h-41zM102 2253v205h205v-205h-205zM512 2253v205h204v-205h-204z" />
<glyph unicode="&#xcc;" horiz-adv-x="409" d="M-100 2253v205l410 -109v-205zM-41 1843v205h246v-2048h-205v1843h-41z" />
<glyph unicode="&#xcd;" horiz-adv-x="409" d="M-121 2145v204l410 109v-205zM-41 1843v205h246v-2048h-205v1843h-41z" />
<glyph unicode="&#xce;" horiz-adv-x="409" d="M-100 2200v205l205 53l205 -53v-205l-205 53zM-41 1843v205h246v-2048h-205v1843h-41z" />
<glyph unicode="&#xcf;" horiz-adv-x="409" d="M-203 2253v205h205v-205h-205zM-41 1843v205h246v-2048h-205v1843h-41zM207 2253v205h204v-205h-204z" />
<glyph unicode="&#xd1;" d="M-41 1843v205h209l446 -446v446h205v-2048h-205v1311l-409 409v-1720h-205v1843h-41zM102 2218v211l205 29l205 -29l204 29v-211l-204 -29l-205 29z" />
<glyph unicode="&#xd2;" d="M0 205v1638l205 205h409l205 -205v-1638l-205 -205h-409zM205 287l82 -82h245l82 82v1474l-82 82h-245l-82 -82v-1474zM205 2253v205l410 -109v-205z" />
<glyph unicode="&#xd3;" d="M0 205v1638l205 205h409l205 -205v-1638l-205 -205h-409zM205 287l82 -82h245l82 82v1474l-82 82h-245l-82 -82v-1474zM205 2145v204l410 109v-205z" />
<glyph unicode="&#xd4;" d="M0 205v1638l205 205h409l205 -205v-1638l-205 -205h-409zM205 287l82 -82h245l82 82v1474l-82 82h-245l-82 -82v-1474zM205 2200v205l205 53l205 -53v-205l-205 53z" />
<glyph unicode="&#xd5;" d="M0 205v1638l205 205h409l205 -205v-1638l-205 -205h-409zM102 2218v211l205 29l205 -29l204 29v-211l-204 -29l-205 29zM205 287l82 -82h245l82 82v1474l-82 82h-245l-82 -82v-1474z" />
<glyph unicode="&#xd6;" d="M0 205v1638l205 205h409l205 -205v-1638l-205 -205h-409zM102 2253v205h205v-205h-205zM205 287l82 -82h245l82 82v1474l-82 82h-245l-82 -82v-1474zM512 2253v205h204v-205h-204z" />
<glyph unicode="&#xd7;" horiz-adv-x="933" d="M0 596l217 215l-217 217l147 146l218 -218l217 218l147 -146l-219 -217l219 -215l-145 -145l-219 217l-220 -217z" />
<glyph unicode="&#xd8;" d="M0 -205l82 328l-82 82v1638l205 205h358l51 205h205l-82 -328l82 -82v-1638l-205 -205h-358l-51 -205h-205zM205 614l307 1229h-225l-82 -82v-1147zM307 205h225l82 82v1147z" />
<glyph unicode="&#xd9;" d="M-41 1843v205h246v-1761l82 -82h245l82 82v1761h205v-1843l-205 -205h-409l-205 205v1638h-41zM205 2253v205l410 -109v-205z" />
<glyph unicode="&#xda;" d="M-41 1843v205h246v-1761l82 -82h245l82 82v1761h205v-1843l-205 -205h-409l-205 205v1638h-41zM205 2145v204l410 109v-205z" />
<glyph unicode="&#xdb;" d="M-41 1843v205h246v-1761l82 -82h245l82 82v1761h205v-1843l-205 -205h-409l-205 205v1638h-41zM205 2200v205l205 53l205 -53v-205l-205 53z" />
<glyph unicode="&#xdc;" d="M-41 1843v205h246v-1761l82 -82h245l82 82v1761h205v-1843l-205 -205h-409l-205 205v1638h-41zM102 2253v205h205v-205h-205zM512 2253v205h204v-205h-204z" />
<glyph unicode="&#xdd;" horiz-adv-x="1064" d="M0 1843v205h246v-414l205 -204l204 204v414h205v-500l-307 -305v-1243h-205v1239l-307 309v295h-41zM246 2145v204l410 109v-205z" />
<glyph unicode="&#xdf;" d="M0 -205v2048l205 205h409l205 -205v-409l-104 -105l104 -100v-1024l-205 -205h-204v205h122l82 82v860l-82 82h-122v205h122l82 82v245l-82 82h-245l-82 -82v-1966h-205z" />
<glyph unicode="&#xe0;" d="M0 205v614l205 205h409v123l-82 82h-432v205h514l205 -205v-1024l-205 -205h-409zM205 287l82 -82h245l82 82v532h-327l-82 -82v-450zM205 1747v205l410 -109v-205z" />
<glyph unicode="&#xe1;" d="M0 205v614l205 205h409v123l-82 82h-432v205h514l205 -205v-1024l-205 -205h-409zM205 287l82 -82h245l82 82v532h-327l-82 -82v-450zM205 1641v204l410 109v-205z" />
<glyph unicode="&#xe2;" d="M0 205v614l205 205h409v123l-82 82h-432v205h514l205 -205v-1024l-205 -205h-409zM205 287l82 -82h245l82 82v532h-327l-82 -82v-450zM205 1640v205l205 53l205 -53v-205l-205 53z" />
<glyph unicode="&#xe3;" d="M0 205v614l205 205h409v123l-82 82h-432v205h514l205 -205v-1024l-205 -205h-409zM102 1605v211l205 29l205 -29l204 29v-211l-204 -29l-205 29zM205 287l82 -82h245l82 82v532h-327l-82 -82v-450z" />
<glyph unicode="&#xe4;" d="M0 205v614l205 205h409v123l-82 82h-432v205h514l205 -205v-1024l-205 -205h-409zM102 1640v205h205v-205h-205zM205 287l82 -82h245l82 82v532h-327l-82 -82v-450zM512 1640v205h204v-205h-204z" />
<glyph unicode="&#xe5;" d="M0 205v614l205 205h409v123l-82 82h-432v205h514l205 -205v-1024l-205 -205h-409zM205 287l82 -82h245l82 82v532h-327l-82 -82v-450z" />
<glyph unicode="&#xe6;" horiz-adv-x="1228" d="M0 205v409l205 205h205v328l-95 82h-215v205h310l102 -103l102 103h205l205 -205v-410l-205 -205h-205v-327l82 -82h228v-205h-310l-102 102l-102 -102h-205zM205 287l82 -82h22l101 102v307h-123l-82 -82v-245zM614 819h123l82 82v246l-82 82h-41l-82 -82v-328z" />
<glyph unicode="&#xe7;" d="M0 205v1024l205 205h409l205 -205v-205h-205v123l-82 82h-245l-82 -82v-860l82 -82h245l82 82v123h205v-205l-205 -205h-409zM203 -205h37l82 82v123h205v-205l-205 -205h-119v205z" />
<glyph unicode="&#xe8;" d="M0 205v1024l205 205h409l205 -205v-615l-205 -204h-409v-123l82 -82h432v-205h-514zM205 614h327l82 82v451l-82 82h-245l-82 -82v-533zM205 1747v205l410 -109v-205z" />
<glyph unicode="&#xe9;" d="M0 205v1024l205 205h409l205 -205v-615l-205 -204h-409v-123l82 -82h432v-205h-514zM205 614h327l82 82v451l-82 82h-245l-82 -82v-533zM205 1641v204l410 109v-205z" />
<glyph unicode="&#xea;" d="M0 205v1024l205 205h409l205 -205v-615l-205 -204h-409v-123l82 -82h432v-205h-514zM205 614h327l82 82v451l-82 82h-245l-82 -82v-533zM205 1640v205l205 53l205 -53v-205l-205 53z" />
<glyph unicode="&#xeb;" d="M0 205v1024l205 205h409l205 -205v-615l-205 -204h-409v-123l82 -82h432v-205h-514zM102 1640v205h205v-205h-205zM205 614h327l82 82v451l-82 82h-245l-82 -82v-533zM512 1640v205h204v-205h-204z" />
<glyph unicode="&#xec;" horiz-adv-x="409" d="M-123 1747v205l410 -109v-205zM-41 1229v205h246v-1434h-205v1229h-41z" />
<glyph unicode="&#xed;" horiz-adv-x="409" d="M-102 1638v205l409 109v-205zM-41 1229v205h246v-1434h-205v1229h-41z" />
<glyph unicode="&#xee;" horiz-adv-x="409" d="M-102 1638v205l204 53l205 -53v-205l-205 54zM-41 1229v205h246v-1434h-205v1229h-41z" />
<glyph unicode="&#xef;" horiz-adv-x="409" d="M-205 1638v205h205v-205h-205zM-41 1229v205h246v-1434h-205v1229h-41zM205 1638v205h205v-205h-205z" />
<glyph unicode="&#xf1;" d="M-41 1229v205h645l215 -205v-1229h-205v1147l-82 82h-327v-1229h-205v1229h-41zM102 1605v211l205 29l205 -29l204 29v-211l-204 -29l-205 29z" />
<glyph unicode="&#xf2;" d="M0 205v1024l205 205h409l205 -205v-1024l-205 -205h-409zM205 287l82 -82h245l82 82v860l-82 82h-245l-82 -82v-860zM205 1747v205l410 -109v-205z" />
<glyph unicode="&#xf3;" d="M0 205v1024l205 205h409l205 -205v-1024l-205 -205h-409zM205 287l82 -82h245l82 82v860l-82 82h-245l-82 -82v-860zM205 1641v204l410 109v-205z" />
<glyph unicode="&#xf4;" d="M0 205v1024l205 205h409l205 -205v-1024l-205 -205h-409zM205 287l82 -82h245l82 82v860l-82 82h-245l-82 -82v-860zM205 1640v205l205 53l205 -53v-205l-205 53z" />
<glyph unicode="&#xf5;" d="M0 205v1024l205 205h409l205 -205v-1024l-205 -205h-409zM102 1605v211l205 29l205 -29l204 29v-211l-204 -29l-205 29zM205 287l82 -82h245l82 82v860l-82 82h-245l-82 -82v-860z" />
<glyph unicode="&#xf6;" d="M0 205v1024l205 205h409l205 -205v-1024l-205 -205h-409zM102 1640v205h205v-205h-205zM205 287l82 -82h245l82 82v860l-82 82h-245l-82 -82v-860zM512 1640v205h204v-205h-204z" />
<glyph unicode="&#xf7;" d="M0 819v205h819v-205h-819zM307 410v205h205v-205h-205zM307 1229v205h205v-205h-205z" />
<glyph unicode="&#xf8;" d="M0 -203l102 305l-102 103v1024l205 205h340l69 206h205l-104 -309l104 -102v-1024l-205 -205h-342l-67 -203h-205zM205 410l272 819h-190l-82 -82v-737zM340 205h192l82 82v739z" />
<glyph unicode="&#xf9;" horiz-adv-x="1026" d="M-41 1229v205h246v-1147l82 -82h327v1229h205v-1229h37v-205h-641l-215 205v1024h-41zM205 1747v205l410 -109v-205z" />
<glyph unicode="&#xfa;" horiz-adv-x="1026" d="M-41 1229v205h246v-1147l82 -82h327v1229h205v-1229h37v-205h-641l-215 205v1024h-41zM205 1641v204l410 109v-205z" />
<glyph unicode="&#xfb;" d="M-41 1229v205h246v-1147l82 -82h327v1229h205v-1229h37v-205h-641l-215 205v1024h-41zM205 1640v205l205 53l205 -53v-205l-205 53z" />
<glyph unicode="&#xfc;" d="M-41 1229v205h246v-1147l82 -82h327v1229h205v-1229h37v-205h-641l-215 205v1024h-41zM102 1640v205h205v-205h-205zM512 1640v205h204v-205h-204z" />
<glyph unicode="&#xfd;" d="M-41 1227v207h248v-207h-2v-942l82 -80h245l82 80v1149h205v-1641l-205 -205h-512v205h430l82 82v125h-409l-205 205v1022h-41zM205 1641v204l410 109v-205z" />
<glyph unicode="&#xff;" d="M-41 1227v207h248v-207h-2v-942l82 -80h245l82 80v1149h205v-1641l-205 -205h-512v205h430l82 82v125h-409l-205 205v1022h-41zM102 1640v205h205v-205h-205zM512 1640v205h204v-205h-204z" />
<glyph unicode="&#x152;" horiz-adv-x="1228" d="M0 205v1638l205 205h819v-205h-410v-409h205v-205h-205v-1024h410v-205h-819zM205 287l82 -82h123v1638h-123l-82 -82v-1474z" />
<glyph unicode="&#x153;" horiz-adv-x="1228" d="M0 205v1024l205 205h205l102 -103l102 103h205l205 -205v-410l-205 -205h-205v-327l82 -82h228v-205h-310l-102 102l-102 -102h-205zM205 287l82 -82h41l82 82v860l-82 82h-41l-82 -82v-860zM614 819h123l82 82v246l-82 82h-41l-82 -82v-328z" />
<glyph unicode="&#x178;" d="M-41 1843v205h246v-414l205 -204l204 204v414h205v-500l-307 -305v-1243h-205v1239l-307 309v295h-41zM102 2253v205h205v-205h-205zM512 2253v205h204v-205h-204z" />
<glyph unicode="&#x2c6;" horiz-adv-x="614" d="M0 1790v205l205 53l205 -53v-205l-205 53z" />
<glyph unicode="&#x2dc;" horiz-adv-x="819" d="M0 1808v211l205 29l205 -29l204 29v-211l-204 -29l-205 29z" />
<glyph unicode="&#x2000;" horiz-adv-x="1229" />
<glyph unicode="&#x2001;" horiz-adv-x="2458" />
<glyph unicode="&#x2002;" horiz-adv-x="1229" />
<glyph unicode="&#x2003;" horiz-adv-x="2458" />
<glyph unicode="&#x2004;" horiz-adv-x="819" />
<glyph unicode="&#x2005;" horiz-adv-x="614" />
<glyph unicode="&#x2006;" horiz-adv-x="409" />
<glyph unicode="&#x2007;" horiz-adv-x="409" />
<glyph unicode="&#x2008;" horiz-adv-x="307" />
<glyph unicode="&#x2009;" horiz-adv-x="491" />
<glyph unicode="&#x200a;" horiz-adv-x="136" />
<glyph unicode="&#x2010;" d="M0 614v205h819v-205h-819z" />
<glyph unicode="&#x2011;" d="M0 614v205h819v-205h-819z" />
<glyph unicode="&#x2012;" d="M0 614v205h819v-205h-819z" />
<glyph unicode="&#x2013;" horiz-adv-x="1433" d="M0 -205h1229v-205h-1229v205z" />
<glyph unicode="&#x2014;" horiz-adv-x="1433" d="M0 -205h1229v-205h-1229v205z" />
<glyph unicode="&#x2018;" horiz-adv-x="409" d="M0 1638v205l102 205v-205h103v-205h-205z" />
<glyph unicode="&#x2019;" horiz-adv-x="409" d="M0 1843v205h205v-205l-103 -205v205h-102z" />
<glyph unicode="&#x201a;" horiz-adv-x="409" d="M0 0v205h205v-205l-103 -205v205h-102z" />
<glyph unicode="&#x201c;" horiz-adv-x="716" d="M0 1638v205l102 205v-205h103v-205h-205zM307 1638v205l103 205v-205h102v-205h-205z" />
<glyph unicode="&#x201d;" horiz-adv-x="716" d="M0 1843v205h205v-205l-103 -205v205h-102zM307 1843v205h205v-205l-102 -205v205h-103z" />
<glyph unicode="&#x201e;" horiz-adv-x="716" d="M0 0v205h205v-205l-103 -205v205h-102zM307 0v205h205v-205l-102 -205v205h-103z" />
<glyph unicode="&#x2022;" horiz-adv-x="819" d="M0 834v188l205 207h190l219 -207v-203l-204 -205h-205zM199 924l106 -111l111 111l-111 106z" />
<glyph unicode="&#x2026;" d="M0 0v205h205v-205h-205zM313 0v205h205v-205h-205zM614 0v205h205v-205h-205z" />
<glyph unicode="&#x202f;" horiz-adv-x="491" />
<glyph unicode="&#x2039;" horiz-adv-x="614" d="M0 819l205 615h205l-205 -615l205 -614h-205z" />
<glyph unicode="&#x203a;" horiz-adv-x="614" d="M0 205l205 614l-205 615h205l205 -615l-205 -614h-205z" />
<glyph unicode="&#x205f;" horiz-adv-x="614" />
<glyph unicode="&#x20ac;" horiz-adv-x="1126" d="M0 1229v205h102v409l205 205h410l205 -205v-205h-205v123l-82 82h-246l-82 -82v-327h410v-205h-410v-205h410v-205h-410v-532l82 -82h246l82 82v123h205v-205l-205 -205h-410l-205 205v614h-98v205h98v205h-102z" />
<glyph unicode="&#x2122;" horiz-adv-x="1536" d="M0 1843v205h614v-205h-204v-819h-205v819h-205zM717 1024v1024h168l137 -141l141 141h168v-1024h-205v696l-104 -104l-100 104v-696h-205z" />
<glyph unicode="&#x25fc;" horiz-adv-x="1433" d="M0 0v1434h1434v-1434h-1434z" />
</font>
</defs>
</svg>
